# xmcd
#
# Track frame offsets:
#	182
#	13707
#	29537
#	46347
#	66130
#	87950
#	104435
#	118905
#	135105
#	151042
#
# Disc length: 2335 seconds
#
# Revision: 7
# Processed by: cddbd v1.5.2PL0 Copyright (c) Steve Scherf et al.
# Submitted via: EZCDAudioConverter 6.0.5.1
#
DISCID=78091d0a
DTITLE=The Judds - The Judds Greatest Hits Volume Two
DYEAR=1991
DGENRE=Country
TTITLE0=Let Me Tell You About Love
TTITLE1=John Deere Tractor
TTITLE2=Turn It Loose
TTITLE3=Young Love (Strong Love)
TTITLE4=Born To Be Blue
TTITLE5=I Know Where I'm Going
TTITLE6=Had a Dream (For The Heart)
TTITLE7=Guardian Angels
TTITLE8=Maybe Your Baby's Got The Blues
TTITLE9=Love Can Build A Bridge
EXTD=
EXTT0=
EXTT1=
EXTT2=
EXTT3=
EXTT4=
EXTT5=
EXTT6=
EXTT7=
EXTT8=
EXTT9=
PLAYORDER=
